HIERARCHY
ROOT SimulationBone
{
	OFFSET 0.000000 0.000000 0.000000
	CHANNELS 6 Xposition Yposition Zposition Zrotation Yrotation Xrotation 
	JOINT Hips
	{
		OFFSET 0.000000 0.000000 0.000000
		CHANNELS 6 Xposition Yposition Zposition Zrotation Yrotation Xrotation 
		JOINT RightUpLeg
		{
			OFFSET 0.103457 1.857824 10.548504
			CHANNELS 3 Zrotation Yrotation Xrotation
			JOINT RightLeg
			{
				OFFSET 43.500000 -0.000038 -0.000017
				CHANNELS 3 Zrotation Yrotation Xrotation
				JOINT RightFoot
				{
					OFFSET 42.372200 0.000011 0.000019
					CHANNELS 3 Zrotation Yrotation Xrotation
					JOINT RightToe
					{
						OFFSET 17.300011 0.000002 -0.000008
						CHANNELS 3 Zrotation Yrotation Xrotation
						End Site
						{
							OFFSET 0.000000 0.000000 0.000000
						}
					}
				}
			}
		}
		JOINT LeftUpLeg
		{
			OFFSET 0.103457 1.857822 -10.548492
			CHANNELS 3 Zrotation Yrotation Xrotation
			JOINT LeftLeg
			{
				OFFSET 43.500038 -0.000027 0.000036
				CHANNELS 3 Zrotation Yrotation Xrotation
				JOINT LeftFoot
				{
					OFFSET 42.372261 0.000015 0.000010
					CHANNELS 3 Zrotation Yrotation Xrotation
					JOINT LeftToe
					{
						OFFSET 17.299988 -0.000006 0.000008
						CHANNELS 3 Zrotation Yrotation Xrotation
						End Site
						{
							OFFSET 0.000000 0.000000 0.000000
						}
					}
				}
			}
		}
		JOINT Spine
		{
			OFFSET 6.901965 -2.603737 0.000006
			CHANNELS 3 Zrotation Yrotation Xrotation
			JOINT Spine1
			{
				OFFSET 12.588104 -0.000005 0.000007
				CHANNELS 3 Zrotation Yrotation Xrotation
				JOINT Spine2
				{
					OFFSET 12.343202 0.000026 -0.000008
					CHANNELS 3 Zrotation Yrotation Xrotation
					JOINT Neck
					{
						OFFSET 25.832890 -0.000029 -0.000007
						CHANNELS 3 Zrotation Yrotation Xrotation
						JOINT Head
						{
							OFFSET 11.766619 0.000021 0.000012
							CHANNELS 3 Zrotation Yrotation Xrotation
							End Site
							{
								OFFSET 0.000000 0.000000 0.000000
							}
						}
					}
					JOINT RightShoulder
					{
						OFFSET 19.745909 -1.480377 6.000106
						CHANNELS 3 Zrotation Yrotation Xrotation
						JOINT RightArm
						{
							OFFSET 11.284110 -0.000009 -0.000020
							CHANNELS 3 Zrotation Yrotation Xrotation
							JOINT RightForeArm
							{
								OFFSET 33.000053 0.000014 0.000021
								CHANNELS 3 Zrotation Yrotation Xrotation
								JOINT RightHand
								{
									OFFSET 25.200008 0.000006 -0.000004
									CHANNELS 3 Zrotation Yrotation Xrotation
									End Site
									{
										OFFSET 0.000000 0.000000 0.000000
									}
								}
							}
						}
					}
					JOINT LeftShoulder
					{
						OFFSET 19.746101 -1.480381 -6.000081
						CHANNELS 3 Zrotation Yrotation Xrotation
						JOINT LeftArm
						{
							OFFSET 11.284131 -0.000022 0.000003
							CHANNELS 3 Zrotation Yrotation Xrotation
							JOINT LeftForeArm
							{
								OFFSET 33.000095 0.000014 0.000005
								CHANNELS 3 Zrotation Yrotation Xrotation
								JOINT LeftHand
								{
									OFFSET 25.199774 0.000153 0.000423
									CHANNELS 3 Zrotation Yrotation Xrotation
									End Site
									{
										OFFSET 0.000000 0.000000 0.000000
									}
								}
							}
						}
					}
				}
			}
		}
	}
}
MOTION
Frames: 5
Frame Time: 0.033333
-326.958634 0.000000 461.114737 180.000000 70.638743 180.000000 -3.428112 81.351120 -4.017880 94.052141 -4.891750 177.427872 161.440031 -5.975692 174.649112 -56.929719 3.016078 2.840932 100.972394 -2.709733 -12.001945 21.454560 0.003095 0.000016 169.831738 -0.567201 -175.899323 -90.984902 -1.612701 -2.950267 82.623658 1.190711 -3.757512 21.454553 -0.003086 -0.000001 10.498424 -0.796246 -0.682901 10.994526 -1.523876 -1.438513 10.676415 -1.532667 -1.429297 9.491959 -7.743215 -6.915748 -22.856289 15.810479 -14.596287 163.803495 -72.794005 15.242493 -5.069505 37.689995 32.166684 -47.898303 -22.196588 2.192603 1.175273 -10.533642 26.417288 -164.118613 78.850320 17.675406 -0.105170 -57.901535 -40.382954 -59.673423 16.482751 -2.187291 3.111465 17.571666 -11.488492 
-330.079273 0.000000 454.824764 180.000000 72.445297 180.000000 -4.517309 82.805290 -3.367219 93.196411 -4.695042 178.269444 167.229368 -5.250910 174.662472 -52.657675 2.843518 1.862294 100.656402 -2.110485 -12.320116 21.454560 0.003109 0.000016 161.868353 -1.756003 -174.460817 -88.301130 -0.723749 -2.371734 85.397705 1.339128 -1.402584 21.454553 -0.003090 -0.000001 10.438842 -0.676295 -1.064683 10.877425 -1.249374 -2.188338 10.559504 -1.262706 -2.180774 9.296413 -7.335358 -5.996109 -23.358620 14.649776 -13.197528 161.083605 -74.399311 17.951902 -7.912137 39.679356 23.207268 -55.075241 -22.103062 2.434128 -0.113668 -14.864968 24.051654 -161.811280 79.143239 20.020637 3.548155 -56.123828 -46.416613 -60.979492 16.553715 -2.241305 2.278331 15.354680 -10.882271 
-332.972945 0.000000 448.565796 180.000000 74.193897 180.000000 -5.005786 84.905319 -2.735049 91.744919 -5.034756 178.875522 173.715971 -3.717807 175.788497 -45.440313 1.869804 0.289530 96.939509 -1.420230 -12.341396 21.454558 0.003110 0.000015 155.300702 -1.890502 -174.069324 -80.476636 1.530818 -2.047775 86.180055 0.884714 -2.330912 21.454548 -0.003091 -0.000002 10.100017 -0.628150 -1.485393 10.202526 -1.122787 -3.020491 9.884841 -1.141133 -3.013675 9.925657 -7.456168 -4.968867 -23.391147 13.394027 -11.554123 162.137298 -74.787109 16.857726 -9.420798 40.052482 17.793553 -64.126378 -21.512640 2.742615 -0.927131 -15.229097 24.612083 -158.030401 80.008966 23.851953 7.145586 -54.584567 -51.747009 -62.446671 15.724369 -2.240519 0.154100 15.162996 -14.628486 
-335.627872 0.000000 442.345989 180.000000 75.848352 180.000000 -4.690260 86.900887 -2.124015 90.684804 -5.594097 179.212528 -179.646092 -2.594895 175.256930 -38.360665 1.293559 0.069118 89.415420 -2.008492 -11.995890 21.454557 0.003109 0.000018 152.061854 -1.538397 -174.265870 -68.360269 4.268703 -0.771573 86.930946 -0.044098 -2.321829 21.454555 -0.003083 0.000000 9.789653 -0.631990 -1.784927 9.584529 -1.113902 -3.616162 9.267060 -1.135829 -3.609396 10.446643 -7.712341 -4.072808 -23.184710 13.026794 -10.409318 162.460393 -74.813213 16.526425 -10.004942 40.256244 13.789060 -72.089252 -19.610788 2.940807 -1.118305 -12.912784 31.112202 -151.935933 80.525656 30.027496 9.576748 -53.491303 -56.257109 -62.540648 15.503300 -2.228980 -0.361834 15.204068 -15.786418 
-338.046930 0.000000 436.127107 180.000000 77.402295 180.000000 -3.942716 88.437218 -1.584944 89.771084 -5.729578 179.644406 -174.249956 -2.498706 175.433532 -33.607399 0.125709 0.222324 80.911999 -3.356703 -13.489513 21.454560 0.003111 0.000017 150.951798 -2.225018 -173.541597 -53.012134 4.878676 1.025510 85.447053 -1.415445 -2.762763 21.454558 -0.003098 -0.000003 9.538864 -0.530345 -1.950451 9.080768 -0.905998 -3.936544 8.763448 -0.929867 -3.931024 10.120121 -7.583988 -3.453099 -22.416975 12.210129 -9.316510 160.456703 -75.897711 18.520331 -10.853429 41.473868 11.693334 -76.665882 -17.645193 2.998975 -3.881381 -13.002300 30.530898 -151.134724 81.407556 30.815819 13.973764 -52.946520 -59.442890 -62.745314 15.105920 -2.209630 -0.092098 14.886476 -13.116064 
